<mxfile host="app.diagrams.net" modified="2023-10-19T08:19:36.010Z" agent="Mozilla/5.0 (Windows NT 10.0; Win64; x64) AppleWebKit/537.36 (KHTML, like Gecko) Chrome/118.0.0.0 Safari/537.36" version="22.0.5" etag="xlXRUYytFkDUTd1iNStL" type="github">
  <diagram name="PÃ¡gina-1" id="orakhWMrrtLOVj4uAgL4">
    <mxGraphModel>
      <root>
        <mxCell id="0" />
        <mxCell id="1" parent="0" />
      </root>
    </mxGraphModel>
  </diagram>
</mxfile>
